<!-- other.svg (settings icon) -->
<svg xmlns="http://www.w3.org/2000/svg" width="48" height="48" fill="none" stroke="currentColor" stroke-width="2" stroke-linecap="round" stroke-linejoin="round" class="feather feather-settings" viewBox="0 0 24 24">
  <circle cx="12" cy="12" r="3"></circle>
  <path d="M19.4 15a1.65 1.65 0 0 0 .33 1.82l.06.06a2 2 0 0 1-2.83 2.83l-.06-.06a1.65
  1.65 0 0 0-1.82-.33 1.65 1.65 0 0 0-1
  1.51V20a2 2 0 0 1-2 2H10a2 2 0 0 1-2-2v-.09a1.65
  1.65 0 0 0-1-.51 1.65 1.65 0 0 0-1.82.33l-.06.06a2
  2 0 0 1-2.83-2.83l.06-.06a1.65 1.65 0 0 0 .33-1.82
  1.65 1.65 0 0 0-1.51-1H4a2 2 0 0 1-2-2V10a2 2 0
  0 1 2-2h.09a1.65 1.65 0 0 0 1-.33 1.65
  1.65 0 0 0 .33-1.82l-.06-.06A2 2 0 0 1 6.03
  2.21l.06.06a1.65 1.65 0 0 0 1.82.33H8a1.65 1.65
  0 0 0 1-.51V4a2 2 0 0 1 2-2h2a2 2 0 0
  1 2 2v.09a1.65 1.65 0 0 0 1
  1.51 1.65 1.65 0 0 0 1.82-.33l.06-.06a2
  2 0 0 1 2.83 2.83l-.06.06a1.65 1.65 0 0 0-.33
  1.82V8a1.65 1.65 0 0 0 .51 1
  1.65 1.65 0 0 0 1.51 1H20a2 2 0 0 1
  2 2v2a2 2 0 0 1-2 2h-.09a1.65 1.65
  0 0 0-1.51 1z"></path>
</svg>
