<svg xmlns="http://www.w3.org/2000/svg" viewBox="0 0 900 600">
  <!-- 背景 -->
  <rect width="900" height="600" fill="#f8f9fa"/>

  <!-- 标题 -->
  <text x="450" y="30" font-family="Arial, sans-serif" font-size="24" text-anchor="middle" font-weight="bold">分库分表架构 (ShardingSphere + Kingbase)</text>

  <!-- 图例 - 已移至右上角 -->
  <rect x="750" y="60" width="20" height="10" fill="#a5d6a7" stroke="#2e7d32" stroke-width="1"/>
  <text x="775" y="69" font-family="Arial, sans-serif" font-size="12" text-anchor="left">主库</text>

  <rect x="750" y="80" width="20" height="10" fill="#dcedc8" stroke="#689f38" stroke-width="1" stroke-dasharray="5,2"/>
  <text x="775" y="89" font-family="Arial, sans-serif" font-size="12" text-anchor="left">从库</text>

  <line x1="750" y1="100" x2="770" y2="100" stroke="#4caf50" stroke-width="1.5" stroke-dasharray="4,2"/>
  <text x="775" y="104" font-family="Arial, sans-serif" font-size="12" text-anchor="left">主从同步</text>

  <line x1="750" y1="120" x2="770" y2="120" stroke="#f44336" stroke-width="1.5" stroke-dasharray="4,2"/>
  <text x="775" y="124" font-family="Arial, sans-serif" font-size="12" text-anchor="left">备份流</text>

  <!-- 应用层 -->
  <rect x="250" y="60" width="400" height="60" rx="10" fill="#e8eaf6" stroke="#3f51b5" stroke-width="2"/>
  <text x="450" y="95" font-family="Arial, sans-serif" font-size="20" text-anchor="middle" font-weight="bold">应用层</text>

  <!-- 应用服务器图标 -->
  <rect x="300" y="70" width="40" height="40" rx="5" fill="#c5cae9" stroke="#3949ab" stroke-width="1"/>
  <rect x="560" y="70" width="40" height="40" rx="5" fill="#c5cae9" stroke="#3949ab" stroke-width="1"/>
  <text x="320" y="92" font-family="Arial, sans-serif" font-size="12" text-anchor="middle">App</text>
  <text x="580" y="92" font-family="Arial, sans-serif" font-size="12" text-anchor="middle">App</text>

  <!-- 连接线 -->
  <path d="M450,120 L450,150" stroke="#3f51b5" stroke-width="2" marker-end="url(#arrow1)"/>
  <defs>
    <marker id="arrow1" markerWidth="10" markerHeight="7" refX="9" refY="3.5" orient="auto">
      <polygon points="0 0, 10 3.5, 0 7" fill="#3f51b5"/>
    </marker>
  </defs>

  <!-- ShardingSphere层 -->
  <rect x="175" y="150" width="550" height="120" rx="10" fill="#e3f2fd" stroke="#2196f3" stroke-width="2"/>
  <text x="450" y="175" font-family="Arial, sans-serif" font-size="20" text-anchor="middle" font-weight="bold">ShardingSphere 中间件层</text>

  <!-- ShardingSphere-Proxy实例 -->
  <rect x="250" y="190" width="180" height="60" rx="5" fill="#bbdefb" stroke="#1976d2" stroke-width="1.5"/>
  <text x="340" y="220" font-family="Arial, sans-serif" font-size="16" text-anchor="middle">ShardingSphere-Proxy</text>

  <!-- 高可用组件 -->
  <rect x="470" y="190" width="180" height="60" rx="5" fill="#bbdefb" stroke="#1976d2" stroke-width="1.5"/>
  <text x="560" y="220" font-family="Arial, sans-serif" font-size="16" text-anchor="middle">高可用/负载均衡</text>

  <!-- 连接线到数据库 -->
  <path d="M340,270 L200,320" stroke="#2196f3" stroke-width="2" marker-end="url(#arrow2)"/>
  <path d="M340,270 L340,320" stroke="#2196f3" stroke-width="2" marker-end="url(#arrow2)"/>
  <path d="M560,270 L560,320" stroke="#2196f3" stroke-width="2" marker-end="url(#arrow2)"/>
  <path d="M560,270 L700,320" stroke="#2196f3" stroke-width="2" marker-end="url(#arrow2)"/>
  <defs>
    <marker id="arrow2" markerWidth="10" markerHeight="7" refX="9" refY="3.5" orient="auto">
      <polygon points="0 0, 10 3.5, 0 7" fill="#2196f3"/>
    </marker>
  </defs>

  <!-- 数据库层 -->
  <rect x="100" y="320" width="700" height="220" rx="10" fill="#e8f5e9" stroke="#4caf50" stroke-width="2"/>
  <text x="450" y="345" font-family="Arial, sans-serif" font-size="20" text-anchor="middle" font-weight="bold">Kingbase数据库层</text>

  <!-- 服务器1 -->
  <rect x="130" y="370" width="300" height="150" rx="5" fill="#c8e6c9" stroke="#388e3c" stroke-width="1.5"/>
  <text x="280" y="390" font-family="Arial, sans-serif" font-size="16" text-anchor="middle" font-weight="bold">服务器1</text>

  <!-- 主库ds0 -->
  <rect x="150" y="400" width="120" height="100" rx="5" fill="#a5d6a7" stroke="#2e7d32" stroke-width="1.5"/>
  <text x="210" y="425" font-family="Arial, sans-serif" font-size="14" text-anchor="middle" font-weight="bold">Kingbase</text>
  <text x="210" y="445" font-family="Arial, sans-serif" font-size="14" text-anchor="middle">主库 ds0</text>
  <text x="210" y="465" font-family="Arial, sans-serif" font-size="12" text-anchor="middle">(偶数用户ID)</text>
  <text x="210" y="485" font-family="Arial, sans-serif" font-size="12" text-anchor="middle">t_transaction_0,1</text>

  <!-- 备库ds1 -->
  <rect x="290" y="400" width="120" height="100" rx="5" fill="#dcedc8" stroke="#689f38" stroke-width="1.5" stroke-dasharray="5,2"/>
  <text x="350" y="425" font-family="Arial, sans-serif" font-size="14" text-anchor="middle" font-weight="bold">Kingbase</text>
  <text x="350" y="445" font-family="Arial, sans-serif" font-size="14" text-anchor="middle">从库 ds1</text>
  <text x="350" y="465" font-family="Arial, sans-serif" font-size="12" text-anchor="middle">(奇数用户ID备份)</text>
  <text x="350" y="485" font-family="Arial, sans-serif" font-size="12" text-anchor="middle">t_transaction_0,1</text>

  <!-- 服务器2 -->
  <rect x="470" y="370" width="300" height="150" rx="5" fill="#c8e6c9" stroke="#388e3c" stroke-width="1.5"/>
  <text x="620" y="390" font-family="Arial, sans-serif" font-size="16" text-anchor="middle" font-weight="bold">服务器2</text>

  <!-- 主库ds1 -->
  <rect x="490" y="400" width="120" height="100" rx="5" fill="#a5d6a7" stroke="#2e7d32" stroke-width="1.5"/>
  <text x="550" y="425" font-family="Arial, sans-serif" font-size="14" text-anchor="middle" font-weight="bold">Kingbase</text>
  <text x="550" y="445" font-family="Arial, sans-serif" font-size="14" text-anchor="middle">主库 ds1</text>
  <text x="550" y="465" font-family="Arial, sans-serif" font-size="12" text-anchor="middle">(奇数用户ID)</text>
  <text x="550" y="485" font-family="Arial, sans-serif" font-size="12" text-anchor="middle">t_transaction_0,1</text>

  <!-- 备库ds0 -->
  <rect x="630" y="400" width="120" height="100" rx="5" fill="#dcedc8" stroke="#689f38" stroke-width="1.5" stroke-dasharray="5,2"/>
  <text x="690" y="425" font-family="Arial, sans-serif" font-size="14" text-anchor="middle" font-weight="bold">Kingbase</text>
  <text x="690" y="445" font-family="Arial, sans-serif" font-size="14" text-anchor="middle">从库 ds0</text>
  <text x="690" y="465" font-family="Arial, sans-serif" font-size="12" text-anchor="middle">(偶数用户ID备份)</text>
  <text x="690" y="485" font-family="Arial, sans-serif" font-size="12" text-anchor="middle">t_transaction_0,1</text>

  <!-- 主从同步箭头 -->
  <path d="M270,450 L350,450" stroke="#4caf50" stroke-width="1.5" stroke-dasharray="4,2" marker-end="url(#arrow3)"/>
  <path d="M610,450 L630,450" stroke="#4caf50" stroke-width="1.5" stroke-dasharray="4,2" marker-end="url(#arrow3)"/>
  <defs>
    <marker id="arrow3" markerWidth="10" markerHeight="7" refX="9" refY="3.5" orient="auto">
      <polygon points="0 0, 10 3.5, 0 7" fill="#4caf50"/>
    </marker>
  </defs>

  <!-- 备份层 -->
  <rect x="250" y="550" width="400" height="40" rx="10" fill="#ffebee" stroke="#f44336" stroke-width="2"/>
  <text x="450" y="575" font-family="Arial, sans-serif" font-size="16" text-anchor="middle" font-weight="bold">备份服务器 (定期全量备份 + WAL归档)</text>

  <!-- 备份连接线 -->
  <path d="M210,500 L350,550" stroke="#f44336" stroke-width="1.5" stroke-dasharray="4,2" marker-end="url(#arrow4)"/>
  <path d="M550,500 L550,550" stroke="#f44336" stroke-width="1.5" stroke-dasharray="4,2" marker-end="url(#arrow4)"/>
  <defs>
    <marker id="arrow4" markerWidth="10" markerHeight="7" refX="9" refY="3.5" orient="auto">
      <polygon points="0 0, 10 3.5, 0 7" fill="#f44336"/>
    </marker>
  </defs>
</svg>